<?xml version="1.0" encoding="UTF-8" standalone="no"?>

<svg
   version="1.1"
   id="svg1"
   width="357.33325"
   height="385.61566"
   viewBox="0 0 357.33325 385.61566"
   xmlns="http://www.w3.org/2000/svg"
   xmlns:svg="http://www.w3.org/2000/svg">
  <defs
     id="defs1">
    <clipPath
       clipPathUnits="userSpaceOnUse"
       id="clipPath28">
      <path
         d="M 0,1350 H 1080 V 0 H 0 Z"
         transform="translate(-402.96181,-875.47462)"
         id="path28" />
    </clipPath>
    <clipPath
       clipPathUnits="userSpaceOnUse"
       id="clipPath30">
      <path
         d="M 0,1350 H 1080 V 0 H 0 Z"
         transform="translate(-421.64671,-884.83982)"
         id="path30" />
    </clipPath>
    <clipPath
       clipPathUnits="userSpaceOnUse"
       id="clipPath32">
      <path
         d="M 0,1350 H 1080 V 0 H 0 Z"
         transform="translate(-424.80051,-654.56272)"
         id="path32" />
    </clipPath>
    <clipPath
       clipPathUnits="userSpaceOnUse"
       id="clipPath34">
      <path
         d="M 0,1350 H 1080 V 0 H 0 Z"
         transform="translate(-545.67011,-611.29492)"
         id="path34" />
    </clipPath>
    <clipPath
       clipPathUnits="userSpaceOnUse"
       id="clipPath36">
      <path
         d="M 0,1350 H 1080 V 0 H 0 Z"
         transform="translate(-479.48021,-784.93122)"
         id="path36" />
    </clipPath>
    <clipPath
       clipPathUnits="userSpaceOnUse"
       id="clipPath38">
      <path
         d="M 0,1350 H 1080 V 0 H 0 Z"
         transform="translate(-579.67432,-666.20392)"
         id="path38" />
    </clipPath>
    <clipPath
       clipPathUnits="userSpaceOnUse"
       id="clipPath40">
      <path
         d="M 0,1350 H 1080 V 0 H 0 Z"
         transform="translate(-583.21582,-784.92782)"
         id="path40" />
    </clipPath>
    <clipPath
       clipPathUnits="userSpaceOnUse"
       id="clipPath42">
      <path
         d="M 0,1350 H 1080 V 0 H 0 Z"
         transform="translate(-450.94201,-760.84732)"
         id="path42" />
    </clipPath>
  </defs>
  <g
     id="layer-MC0"
     transform="translate(-536.32343,-653.51605)">
    <path
       id="path27"
       d="m 0,0 c 29.963,41.448 74.583,72.284 127.033,74.828 66.56,3.228 121.744,-40.101 153.463,-95.187 55.17,-95.813 46.464,-237.653 -29.883,-319.914 -70.631,-76.104 -173.54,-71.707 -239.944,7.011 C -64.61,-244.023 -68.095,-94.198 0,0 m 252.116,-344.281 c 73.266,77.449 86.09,208.484 42.908,303.889 C 263.848,28.486 202.385,83.369 122.525,78.334 77.137,75.473 35.865,49.319 7.163,15.377 c -79.157,-93.606 -79.157,-254.909 -1.002,-349.14 67.236,-81.067 172.475,-88.193 245.955,-10.518"
       style="fill:var(--primary);fill-opacity:1;fill-rule:nonzero;stroke:none"
       transform="matrix(1.3333333,0,0,-1.3333333,537.2824,632.70053)"
       clip-path="url(#clipPath28)" />
    <path
       id="path29"
       d="m 0,0 c 28.323,32.154 67.649,54.633 111.353,55.946 46.785,1.405 89.922,-22.68 119.803,-57.219 81.485,-94.184 76.899,-267.512 -16.008,-352.623 -64.51,-59.098 -151.34,-53.098 -210.396,10.011 C -78.204,-255.234 -80.185,-91.032 0,0 m 13.017,-357.158 c 67.71,-62.151 159.429,-52.452 218.911,15.033 79.649,90.365 81.12,249.18 3.737,341.354 -32.044,38.17 -77.799,63.037 -128.82,60.223 -52.132,-2.874 -96.919,-35.397 -125.53,-77.333 -67.18,-98.47 -57.759,-257.161 31.702,-339.277"
       style="fill:#000000;fill-opacity:1;fill-rule:nonzero;stroke:none"
       transform="matrix(1.3333333,0,0,-1.3333333,562.1956,620.2136)"
       clip-path="url(#clipPath30)" />
    <path
       id="path31"
       d="M 0,0 C -5.9,1.903 -6.125,7.464 -2.656,11.891 4.252,20.709 23.847,14.965 32.666,11.373 25.482,4.463 9.979,-3.218 0,0 m 136.266,176.009 c 4.353,7.907 13.558,24.184 23.374,25.208 5.396,0.564 9.361,-2.505 10.142,-7.893 1.562,-10.769 -7.341,-26.74 -13.487,-35.34 -11.785,-16.492 -28.321,-29.221 -45.984,-38.912 8.558,18.956 15.911,38.694 25.955,56.937 M 37.302,9.308 c 1.65,-0.229 9.654,-5.204 11.655,-6.434 9.968,-6.125 18.905,-13.8 28.786,-20.046 0.442,0.568 -4.613,11.744 -5.532,13.247 -7.664,3.694 -15.499,7.057 -23.025,11.036 -2.151,1.137 -6.523,3.116 -8.182,4.34 -0.435,0.321 -0.981,0.49 -0.82,1.172 29.904,27.541 50.076,64.352 67.268,100.789 22.566,11.372 44.042,27.867 57.037,49.902 5.478,9.29 14.934,31.142 4.169,39.405 -13.027,10 -29.6,-11.643 -36.22,-20.878 -15.445,-21.548 -27.142,-46.33 -39.425,-69.77 -13.257,-5.032 -27.59,-7.826 -41.811,-7.528 0.198,-2.319 0.582,-4.034 3.248,-4.052 3.55,-0.023 9.299,0.654 12.965,1.114 7.944,0.996 15.725,3.136 23.356,5.44 C 74.154,75.462 61.381,40.057 36.159,14.108 L 35.513,13.961 C 24.954,18.45 8.85,24.046 -1.85,17.596 -11.329,11.881 -11.551,-2.473 0.903,-4.106 11.647,-5.515 21.832,-0.953 30.527,4.753 31.98,5.707 36.06,9.48 37.302,9.308"
       style="fill:#000000;fill-opacity:1;fill-rule:nonzero;stroke:none"
       transform="matrix(1.3333333,0,0,-1.3333333,566.40067,927.24973)"
       clip-path="url(#clipPath32)" />
    <path
       id="path33"
       d="m 0,0 c -0.482,-0.422 -3.297,-10.372 -4.149,-12.125 -0.324,-0.668 -0.605,-1.17 -1.166,-0.359 L -49.126,89.708 c -1.118,-2.521 -2.965,-4.955 -4.606,-7.17 -1.426,-1.924 -5.41,-6.174 -6.169,-7.882 -0.245,-0.552 -0.369,-0.994 -0.168,-1.591 l 46.948,-113.278 c 0.51,-0.652 3.647,-0.629 3.978,0.523 L 4.418,-1.243 C 4.191,-0.336 0.504,0.441 0,0"
       style="fill:#000000;fill-opacity:1;fill-rule:nonzero;stroke:none"
       transform="matrix(1.3333333,0,0,-1.3333333,727.56013,984.94013)"
       clip-path="url(#clipPath34)" />
    <path
       id="path35"
       d="m 0,0 c 3.185,0.544 7.905,-1.241 7.039,3.229 h -62.111 c -0.748,-4.341 3.001,-2.682 6.034,-3.233 14.441,-2.621 23.385,-24.078 28.616,-35.999 7.444,-16.965 13.557,-34.56 21.2,-51.435 L 11.01,-68.65 C 4.356,-50.885 -4.246,-33.777 -9.436,-15.5 -10.353,-7.755 -8.505,-1.452 0,0"
       style="fill:#000000;fill-opacity:1;fill-rule:nonzero;stroke:none"
       transform="matrix(1.3333333,0,0,-1.3333333,639.30693,753.42507)"
       clip-path="url(#clipPath36)" />
    <path
       id="path37"
       d="M 0,0 C -0.39,-0.475 -0.732,-0.991 -1.066,-1.506 -1.562,-2.27 -2.029,-3.055 -2.459,-3.859 -2.898,-4.68 -3.305,-5.523 -3.614,-6.402 -3.842,-7.053 -4.07,-7.792 -3.976,-8.49 c 0.074,-0.552 0.427,-0.919 0.984,-0.987 0.745,-0.092 1.44,0.091 1.975,0.63 0.324,0.327 0.569,0.722 0.81,1.115 1.768,2.868 3.386,5.796 5.746,8.228 2.114,2.177 4.559,3.998 7.109,5.63 4.828,3.089 10.335,5.223 15.843,6.735 5.832,1.602 11.871,2.49 17.918,2.643 5.807,0.146 11.674,-0.38 17.298,-1.873 5.03,-1.336 9.942,-3.48 13.981,-6.81 3.831,-3.16 6.664,-7.364 7.966,-12.17 1.597,-5.891 0.914,-12.155 -0.743,-17.952 -4.1,-14.347 -16.299,-25.507 -30.042,-30.566 -35.747,-13.159 -75.325,7.773 -106.945,23.05 0.19,-0.692 6.157,-14.72 7.024,-16.763 21.082,-9.173 44.325,-13.653 67.333,-14.313 26.849,-0.77 57.051,7.705 66.03,36.193 C 104.931,27.03 25.152,30.62 0,0"
       style="fill:#000000;fill-opacity:1;fill-rule:nonzero;stroke:none"
       transform="matrix(1.3333333,0,0,-1.3333333,772.89907,911.72813)"
       clip-path="url(#clipPath38)" />
    <path
       id="path39"
       d="m 0,0 c 14.626,-2.654 15.604,-21.419 12.861,-32.944 l -44.745,-125.084 c -0.1,-1.293 3.002,-1.866 4.033,-2.054 15.952,43.675 31.246,87.632 47.775,131.095 5.988,14.562 16.371,30.314 34.165,29.433 0.613,0.391 0.631,2.639 0.485,2.786 H -7.537 C -8.439,-1.331 -3.262,0.592 0,0"
       style="fill:#000000;fill-opacity:1;fill-rule:nonzero;stroke:none"
       transform="matrix(1.3333333,0,0,-1.3333333,777.62107,753.4296)"
       clip-path="url(#clipPath40)" />
    <path
       id="path41"
       d="M 0,0 C -1.691,0.867 -8.23,1.802 -10.887,2.637 -55.791,16.751 -55.288,62 -15.203,81.85 c 25.17,12.464 75.984,14.345 96.374,-7.692 1.073,-1.16 3.952,-6.657 5.964,-5.237 3.317,2.341 -7.054,11.737 -9.036,13.185 C 44.839,106.408 -35.741,96.837 -47.326,50.86 -55.471,18.531 -25.897,-0.329 2.015,-4.241 1.844,-3.035 1.085,-0.557 0,0"
       style="fill:#000000;fill-opacity:1;fill-rule:nonzero;stroke:none"
       transform="matrix(1.3333333,0,0,-1.3333333,601.256,785.53693)"
       clip-path="url(#clipPath42)" />
  </g>
</svg>
